<svg xmlns="http://www.w3.org/2000/svg" xmlns:xlink="http://www.w3.org/1999/xlink" width="49" height="49" viewBox="0 0 49 49"><defs><path id="defla" d="M853.206 10447.472v47.923h-47.95v-47.923zm-45.963 1.988v8.999h43.975v-9zm43.975 43.947v-32.96h-43.975v32.96zm-30.993-40.909h3.041v3.04h-3.04zm14.97 0h3.041v3.04h-3.04zm-12.747 14.728h1.754v15.662h-2.105v-11.104h-3.86v-1.637h.351a65.082 65.082 0 0 0 2.047-.175c.35-.038.72-.252 1.11-.642.39-.39.624-.974.703-1.754zm15.613 6.545c.974 1.014 1.462 2.337 1.462 3.974 0 1.56-.547 2.863-1.638 3.916-1.092 1.052-2.379 1.577-3.86 1.577-1.56 0-2.826-.467-3.8-1.402-.976-.936-1.462-2.142-1.462-3.624v-.35h2.105v.35c0 .936.31 1.696.936 2.28.623.585 1.403.877 2.339.877 1.012 0 1.813-.37 2.397-1.11.585-.74.878-1.617.878-2.63 0-1.012-.313-1.85-.936-2.513-.625-.662-1.444-.994-2.456-.994-1.327 0-2.34.546-3.04 1.636l-.118.117h-1.754l1.637-8.416h8.07v1.988h-6.55l-.701 3.623a4.396 4.396 0 0 1 2.573-.819c1.637 0 2.942.508 3.918 1.52z"/></defs><g><g transform="translate(-805 -10447)"><use fill="#fc5f45" xlink:href="#defla"/></g></g></svg>