<svg height="451pt" viewBox="-3 0 451 451.99249" width="451pt" xmlns="http://www.w3.org/2000/svg"><path d="m65.316406 22.355469c-1.949218 23.125-26.050781 26.777343-26.050781 26.777343 20.695313.972657 25.851563 28.117188 25.851563 28.117188.441406-19.351562 26.640624-28.402344 26.640624-28.402344-19.625-1.175781-26.441406-26.492187-26.441406-26.492187zm0 0" fill="#d7e057"/><path d="m91.941406 45.851562c-17.210937-1.027343-23.664062-24.046874-23.730468-24.28125-.378907-1.402343-1.695313-2.304687-3.164063-2.203124-1.449219.132812-2.597656 1.285156-2.71875 2.734374-1.71875 20.429688-22.625 23.925782-23.507813 24.0625-1.527343.234376-2.625 1.582032-2.546874 3.121094.078124 1.542969 1.3125 2.769532 2.855468 2.84375 18.054688.847656 22.996094 25.4375 23.046875 25.6875.273438 1.421875 1.515625 2.433594 2.941407 2.433594.085937 0 .167968-.003906.253906-.011719 1.527344-.128906 2.714844-1.386719 2.75-2.917969.386718-17.019531 24.382812-25.554687 24.625-25.640624 1.351562-.46875 2.183594-1.828126 1.988281-3.242188-.199219-1.417969-1.367187-2.5-2.792969-2.585938zm-27.132812 20.691407c-2.714844-6.261719-7.417969-13.816407-15.175782-17.753907 5.863282-2.808593 12.820313-7.824218 16.40625-16.542968 3.101563 6.140625 8.398438 13.757812 16.667969 17.445312-6.015625 3.277344-13.847656 8.808594-17.898437 16.851563zm0 0" fill="#3a312a"/><path d="m21.921875 56.316406c-1.378906 16.355469-18.425781 18.9375-18.425781 18.9375 14.636718.691406 18.285156 19.886719 18.285156 19.886719.3125-13.6875 18.84375-20.089844 18.84375-20.089844-13.882812-.828125-18.703125-18.734375-18.703125-18.734375zm0 0" fill="#d7e057"/><path d="m40.800781 72.058594c-11.53125-.691406-15.941406-16.371094-15.988281-16.53125-.378906-1.402344-1.714844-2.320313-3.164062-2.203125-1.449219.128906-2.597657 1.285156-2.71875 2.734375-1.15625 13.742187-15.292969 16.132812-15.882813 16.226562-1.527344.234375-2.625 1.582032-2.546875 3.125.082031 1.539063 1.3125 2.769532 2.855469 2.839844 12.070312.570312 15.445312 17.289062 15.480469 17.453125.269531 1.425781 1.515624 2.441406 2.945312 2.441406.082031 0 .164062-.003906.246094-.011719 1.53125-.125 2.71875-1.382812 2.753906-2.921874.257812-11.417969 16.664062-17.265626 16.824219-17.324219 1.355469-.464844 2.1875-1.824219 1.992187-3.242188-.199218-1.417969-1.367187-2.503906-2.796875-2.585937zm-19.167969 13.589844c-1.847656-3.773438-4.679687-7.894532-8.894531-10.558594 3.710938-2.082032 7.394531-5.261719 9.742188-9.832032 2.113281 3.746094 5.308593 7.910157 9.882812 10.445313-3.699219 2.203125-7.980469 5.480469-10.730469 9.945313zm0 0" fill="#3a312a"/><path d="m21.921875 3c-1.378906 16.355469-18.425781 18.941406-18.425781 18.941406 14.636718.6875 18.285156 19.886719 18.285156 19.886719.3125-13.691406 18.84375-20.089844 18.84375-20.089844-13.882812-.828125-18.703125-18.738281-18.703125-18.738281zm0 0" fill="#d7e057"/><path d="m40.800781 18.746094c-11.53125-.695313-15.945312-16.375-15.988281-16.53125-.378906-1.40625-1.714844-2.324219-3.164062-2.2031252-1.449219.1289062-2.597657 1.2851562-2.71875 2.7343752-1.15625 13.742187-15.292969 16.128906-15.882813 16.222656-1.527344.234375-2.625 1.582031-2.546875 3.121094.082031 1.542968 1.3125 2.769531 2.855469 2.84375 12.070312.566406 15.445312 17.289062 15.476562 17.453125.269531 1.421875 1.519531 2.441406 2.945313 2.441406.082031 0 .164062-.003906.25-.011719 1.527344-.125 2.714844-1.386718 2.75-2.921875.261718-11.417969 16.664062-17.265625 16.828125-17.320312 1.351562-.46875 2.1875-1.828125 1.992187-3.246094-.199218-1.414063-1.367187-2.496094-2.796875-2.582031zm-19.167969 13.585937c-1.847656-3.769531-4.679687-7.894531-8.894531-10.558593 3.710938-2.082032 7.394531-5.257813 9.738281-9.832032 2.117188 3.75 5.308594 7.910156 9.886719 10.449219-3.699219 2.199219-7.976562 5.480469-10.730469 9.941406zm0 0" fill="#3a312a"/><path d="m334.597656 151.613281h-234.519531c-9.808594 0-17.757813 7.953125-17.757813 17.757813v158.929687c0 45.199219 36.640626 81.839844 81.84375 81.839844h106.351563c45.199219 0 81.839844-36.640625 81.839844-81.839844v-158.929687c0-9.804688-7.949219-17.757813-17.757813-17.757813zm0 0" fill="#f16c7a"/><path d="m334.597656 148.613281h-234.519531c-11.449219 0-20.761719 9.3125-20.761719 20.757813v26.480468c0 1.65625 1.34375 3 3 3 1.660156 0 3-1.34375 3-3v-26.480468c0-8.132813 6.625-14.757813 14.761719-14.757813h234.519531c8.136719 0 14.757813 6.625 14.757813 14.757813v158.929687c0 43.472657-35.367188 78.84375-78.84375 78.84375h-106.347657c-43.476562 0-78.84375-35.367187-78.84375-78.84375v-102.925781c0-1.65625-1.34375-3-3-3s-3 1.34375-3 3v102.925781c0 46.785157 38.058594 84.84375 84.84375 84.84375h106.347657c46.785156 0 84.84375-38.058593 84.84375-84.84375v-158.929687c0-11.445313-9.3125-20.757813-20.757813-20.757813zm0 0" fill="#3a312a"/><path d="m43.027344 410.140625c0 21.460937 17.394531 38.855469 38.851562 38.855469h270.921875c21.457031 0 38.851563-17.394532 38.851563-38.855469zm0 0" fill="#87796f"/><path d="m391.648438 407.140625h-348.621094c-1.660156 0-3 1.347656-3 3 0 23.078125 18.773437 41.851563 41.847656 41.851563h178.703125c1.652344 0 3-1.34375 3-3s-1.347656-3-3-3h-178.703125c-18.757812 0-34.195312-14.480469-35.726562-32.851563h342.378906c-1.527344 18.371094-16.96875 32.851563-35.726563 32.851563h-63.699219c-1.65625 0-3 1.34375-3 3s1.34375 3 3 3h63.699219c23.078125 0 41.851563-18.773438 41.851563-41.851563-.003906-1.652344-1.347656-3-3.003906-3zm0 0" fill="#3a312a"/><path d="m354.898438 188.363281c-.859376 0-1.699219.023438-2.539063.042969v28.019531c.839844-.039062 1.679687-.0625 2.539063-.0625 32.539062 0 59.019531 26.484375 59.019531 59.023438 0 32.519531-26.480469 59-59.019531 59-.921876 0-1.839844-.023438-2.761719-.082031-.699219 9.742187-3.117188 19.023437-6.957031 27.523437 3.179687.378906 6.4375.558594 9.71875.558594 47.980468 0 87.019531-39.039063 87.019531-87 0-47.980469-39.039063-87.023438-87.019531-87.023438zm0 0" fill="#f16c7a"/><g fill="#3a312a"><path d="m354.898438 185.367188c-.882813 0-1.746094.019531-2.609376.039062-1.628906.039062-2.929687 1.371094-2.929687 3v28.023438c0 .820312.335937 1.605468.929687 2.171874.59375.566407 1.402344.867188 2.214844.824219.789063-.042969 1.582032-.058593 2.390625-.058593 30.890625 0 56.023438 25.132812 56.023438 56.019531 0 30.878906-25.132813 56-56.023438 56-.851562 0-1.707031-.015625-2.558593-.070313-1.628907-.125-3.074219 1.128906-3.191407 2.777344-.660156 9.203125-2.917969 18.121094-6.703125 26.5-.394531.871094-.347656 1.875.117188 2.707031.472656.832031 1.308594 1.390625 2.257812 1.503907 3.226563.386718 6.617188.582031 10.078125.582031 49.636719 0 90.019531-40.371094 90.019531-90 .003907-49.636719-40.378906-90.019531-90.015624-90.019531zm0 174.015624c-1.816407 0-3.609376-.054687-5.363282-.171874 2.753906-7 4.546875-14.3125 5.339844-21.828126h.023438c34.199218 0 62.019531-27.808593 62.019531-62 0-34.039062-27.570313-61.765624-61.558594-62.015624v-22c46.121094.246093 83.558594 37.839843 83.558594 84.015624 0 46.320313-37.691407 84-84.019531 84zm0 0"/><path d="m160.414062 121.625c-4.730468-4.730469-7.324218-11.019531-7.296874-17.707031.023437-6.691407 2.660156-12.957031 7.425781-17.652344 5.882812-5.792969 9.152343-13.535156 9.214843-21.792969.058594-8.253906-3.097656-16.039062-8.894531-21.925781l-.867187-.875c-9.570313-9.714844-9.515625-25.460937.132812-35.109375l.140625-.140625c1.167969-1.175781 1.164063-3.074219-.011719-4.242187-1.175781-1.167969-3.074218-1.164063-4.246093.015624l-.132813.132813c-11.960937 11.960937-12.035156 31.503906-.15625 43.554687l.867188.878907c9.640625 9.785156 9.527344 25.585937-.257813 35.230469-5.910156 5.824218-9.183593 13.601562-9.214843 21.898437-.03125 8.300781 3.183593 16.105469 9.054687 21.972656l.488281.488281c.585938.585938 1.355469.878907 2.121094.878907.769531 0 1.535156-.292969 2.125-.878907 1.171875-1.171874 1.171875-3.070312 0-4.242187zm0 0"/><path d="m200.667969 121.625c-4.730469-4.730469-7.320313-11.019531-7.296875-17.707031.027344-6.691407 2.664062-12.957031 7.425781-17.652344 5.882813-5.792969 9.15625-13.535156 9.214844-21.792969.0625-8.253906-3.097657-16.039062-8.894531-21.925781l-.867188-.875c-9.570312-9.714844-9.515625-25.457031.140625-35.117187l.140625-.140626c1.164062-1.179687 1.148438-3.078124-.03125-4.242187-1.175781-1.164063-3.078125-1.148437-4.242188.027344l-.125.128906c-11.964843 11.960937-12.035156 31.503906-.160156 43.554687l.871094.878907c4.671875 4.738281 7.214844 11.015625 7.167969 17.667969-.050781 6.652343-2.6875 12.890624-7.425781 17.5625-5.914063 5.824218-9.1875 13.601562-9.214844 21.898437-.03125 8.300781 3.183594 16.105469 9.054687 21.972656l.492188.492188c.585937.582031 1.351562.875 2.121093.875.765626 0 1.539063-.292969 2.125-.878907 1.167969-1.171874 1.167969-3.074218-.003906-4.242187zm0 0"/><path d="m238.246094 121.625c-4.730469-4.730469-7.320313-11.019531-7.296875-17.707031.027343-6.691407 2.664062-12.960938 7.425781-17.652344 12.140625-11.964844 12.285156-31.574219.320312-43.71875l-.867187-.875c-9.570313-9.714844-9.515625-25.460937.140625-35.117187l.140625-.140626c1.164063-1.179687 1.152344-3.078124-.027344-4.242187-1.1875-1.164063-3.082031-1.148437-4.246093.027344l-.125.128906c-11.960938 11.960937-12.035157 31.503906-.15625 43.554687l.871093.878907c4.667969 4.738281 7.210938 11.015625 7.164063 17.667969-.046875 6.652343-2.683594 12.890624-7.425782 17.5625-5.910156 5.824218-9.183593 13.601562-9.214843 21.898437s3.183593 16.105469 9.058593 21.976563l.492188.488281c.585938.585937 1.351562.878906 2.117188.878906.769531 0 1.539062-.296875 2.125-.882813 1.167968-1.175781 1.164062-3.074218-.011719-4.242187zm0 0"/><path d="m278.5 121.625c-4.726562-4.730469-7.320312-11.019531-7.292969-17.707031.023438-6.691407 2.660157-12.960938 7.425781-17.652344 12.140626-11.964844 12.285157-31.574219.316407-43.71875l-.867188-.875c-9.570312-9.714844-9.511719-25.460937.144531-35.117187l.140626-.140626c1.160156-1.179687 1.148437-3.078124-.03125-4.242187-1.183594-1.164063-3.078126-1.148437-4.242188.027344l-.125.128906c-11.960938 11.960937-12.035156 31.503906-.15625 43.554687l.867188.878907c9.640624 9.785156 9.527343 25.585937-.257813 35.230469-5.914063 5.824218-9.183594 13.601562-9.214844 21.898437s3.183594 16.105469 9.054688 21.976563l.492187.488281c.585938.585937 1.351563.878906 2.117188.878906.769531 0 1.539062-.296875 2.125-.882813 1.171875-1.175781 1.167968-3.074218-.007813-4.242187zm0 0"/></g><path d="m334.597656 154.613281h-27.378906c8.140625 0 14.757812 6.621094 14.757812 14.761719v158.917969c0 2.441406-.117187 4.863281-.339843 7.242187-.039063.417969-.078125.839844-.117188 1.238282-.121093 1.042968-.242187 2.0625-.402343 3.082031-.019532.179687-.039063.359375-.058594.558593-.601563 3.859376-1.480469 7.621094-2.621094 11.261719-.019531.058594-.019531.097657-.039062.140625-.359376 1.136719-.738282 2.257813-1.140626 3.359375-.058593.179688-.140624.378907-.199218.558594-.359375.960937-.742188 1.898437-1.121094 2.839844-.121094.28125-.238281.539062-.359375.820312-12.101563 28.058594-40 47.738281-72.441406 47.738281h27.382812c32.4375 0 60.339844-19.679687 72.4375-47.738281.121094-.28125.242188-.539062.339844-.820312.402344-.941407.78125-1.878907 1.121094-2.839844.082031-.179687.140625-.378906.21875-.558594.402343-1.101562.78125-2.222656 1.140625-3.359375 0-.042968.019531-.082031.039062-.140625 1.140625-3.640625 2-7.402343 2.601563-11.261719.039062-.199218.058593-.378906.082031-.558593.160156-1.019531.277344-2.039063.398438-3.082031.039062-.398438.078124-.820313.121093-1.238282.21875-2.378906.339844-4.800781.339844-7.242187v-158.917969c0-8.140625-6.621094-14.761719-14.761719-14.761719zm0 0" fill="#d34e5c"/><path d="m357.125 413.136719v.003906c-1.519531 18.359375-16.925781 32.820313-35.65625 32.855469-.019531 0-.039062 0-.058594 0h31.398438c18.757812 0 34.199218-14.480469 35.71875-32.859375zm0 0" fill="#695b51"/><path d="m309.015625 280.757812c0 51.164063-41.480469 92.644532-92.644531 92.644532-51.164063 0-92.640625-41.480469-92.640625-92.644532 0-51.164062 41.476562-92.640624 92.640625-92.640624 51.164062 0 92.644531 41.476562 92.644531 92.640624zm0 0" fill="#fce8cb"/><path d="m216.371094 185.117188c-52.738282 0-95.640625 42.90625-95.640625 95.644531 0 52.734375 42.90625 95.640625 95.640625 95.640625 52.738281 0 95.644531-42.90625 95.644531-95.640625 0-52.738281-42.90625-95.644531-95.644531-95.644531zm0 185.285156c-49.425782 0-89.640625-40.214844-89.640625-89.640625 0-49.429688 40.214843-89.644531 89.640625-89.644531 49.429687 0 89.644531 40.214843 89.644531 89.644531 0 49.425781-40.214844 89.640625-89.644531 89.640625zm0 0" fill="#3a312a"/><path d="m253.371094 280.996094c0-32.421875-16.5625-58.707032-37-58.707032-20.433594 0-37 26.285157-37 58.707032 0 32.425781 16.566406 58.707031 37 58.707031 20.4375 0 37-26.28125 37-58.707031zm0 0" fill="#87796f"/><path d="m216.371094 219.289062c-22.054688 0-40 27.679688-40 61.707032s17.945312 61.707031 40 61.707031c22.058594 0 40-27.679687 40-61.707031s-17.941406-61.707032-40-61.707032zm0 117.414063c-18.746094 0-34-24.988281-34-55.707031s15.253906-55.707032 34-55.707032c18.75 0 34 24.988282 34 55.707032s-15.25 55.707031-34 55.707031zm0 0" fill="#3a312a"/><path d="m219.359375 279.464844-1.503906-1.296875c-8.332031-7.167969-12.902344-16.621094-12.867188-26.609375.035157-10.011719 4.6875-19.449219 13.09375-26.578125l.246094-.207031c1.265625-1.070313 1.425781-2.960938.355469-4.226563-1.070313-1.265625-2.964844-1.425781-4.230469-.355469l-.25.210938c-9.769531 8.28125-15.171875 19.339844-15.214844 31.132812-.042969 11.773438 5.269531 22.84375 14.953125 31.175782l1.503906 1.296874c8.367188 7.203126 12.9375 16.691407 12.863282 26.726563-.070313 10.070313-4.804688 19.539063-13.332032 26.664063-1.269531 1.058593-1.4375 2.953124-.375 4.222656.589844.710937 1.445313 1.078125 2.304688 1.078125.675781 0 1.359375-.230469 1.921875-.699219 9.898437-8.273438 15.394531-19.363281 15.480469-31.222656.085937-11.820313-5.222656-22.941406-14.949219-31.3125zm0 0" fill="#3a312a"/></svg>