<svg xmlns="http://www.w3.org/2000/svg" xmlns:xlink="http://www.w3.org/1999/xlink" width="55" height="43" viewBox="0 0 55 43"><defs><path id="jwd7a" d="M1125.406 2281.999H1079v-36.106h46.406zm-44.687-34.387v22.889l11.172-11.283 12.246 13.969 8.486-5.157 11.064 9.563v-29.98zm42.968 32.667v-.43l-11.279-9.67-8.701 5.157-11.816-13.539-11.172 11.068v7.414zm-36.953-41.263H1134v36.106h-7.734v-1.72h6.015v-32.667h-43.828v4.299h-1.719zm21.485 18.913c0-1.433.5-2.65 1.504-3.654 1.002-1.003 2.218-1.504 3.652-1.504 1.432 0 2.649.501 3.652 1.504 1.002 1.004 1.504 2.22 1.504 3.654 0 1.433-.502 2.65-1.504 3.653-1.003 1.004-2.22 1.504-3.652 1.504-1.434 0-2.65-.5-3.652-1.504-1.004-1.002-1.504-2.22-1.504-3.653zm1.718 0c0 1.003.323 1.826.967 2.47.645.646 1.467.968 2.471.968 1.002 0 1.826-.322 2.47-.967.645-.645.967-1.468.967-2.471 0-1.003-.322-1.827-.966-2.472-.645-.645-1.469-.967-2.471-.967-1.004 0-1.826.322-2.47.967-.645.645-.968 1.47-.968 2.472z"/></defs><g><g transform="translate(-1079 -2239)"><use fill="#b27cf5" xlink:href="#jwd7a"/></g></g></svg>