<svg xmlns="http://www.w3.org/2000/svg" xmlns:xlink="http://www.w3.org/1999/xlink" width="80" height="80" viewBox="0 0 80 80"><defs><path id="sibda" d="M954.687 2912.312l17.813 13.75v1.875l-17.813 13.75-2.187-.937v-27.5zm.313 25.937l14.219-11.25L955 2915.75zm45-11.25c0 11.043-3.906 20.47-11.719 28.282C980.47 2963.093 971.04 2967 960 2967c-11.043 0-20.469-3.907-28.281-11.72-7.813-7.812-11.72-17.238-11.72-28.28 0-11.04 3.907-20.469 11.72-28.281 7.812-7.813 17.238-11.72 28.28-11.72 11.041 0 20.47 3.907 28.282 11.72 7.813 7.812 11.719 17.241 11.719 28.28zm-2.5 0c0-10.207-3.648-19.062-10.938-26.562-7.5-7.29-16.355-10.937-26.562-10.937-10.21 0-19.063 3.647-26.563 10.937-7.292 7.5-10.937 16.355-10.937 26.562 0 10.21 3.645 19.063 10.937 26.563 7.5 7.292 16.353 10.938 26.563 10.938 10.207 0 19.062-3.646 26.562-10.938 7.29-7.5 10.938-16.352 10.938-26.563z"/></defs><g><g transform="translate(-920 -2887)"><use fill="#38c695" xlink:href="#sibda"/></g></g></svg>