<svg xmlns="http://www.w3.org/2000/svg" xmlns:xlink="http://www.w3.org/1999/xlink" width="51" height="43" viewBox="0 0 51 43"><defs><path id="ofzua" d="M1132.55 5947.686c0 3.702-1.305 6.865-3.913 9.484l-21.136 20.052-21.135-19.855c-2.61-2.686-3.914-5.898-3.914-9.633 0-3.735 1.304-6.913 3.914-9.534 2.544-2.556 5.805-3.834 9.785-3.834 3.718 0 6.85 1.278 9.393 3.834 1.043 1.311 1.762 2.294 2.153 2.949.521-1.048 1.238-2.031 2.153-2.949 2.544-2.556 5.675-3.834 9.393-3.834 3.718 0 6.85 1.278 9.394 3.834 2.608 2.621 3.914 5.784 3.914 9.486zm-5.479-8.306c-2.088-2.227-4.762-3.342-8.024-3.342-3.196 0-5.904 1.115-8.12 3.342a41.028 41.028 0 0 0-1.664 2.26l-1.762 2.949-1.76-2.95c-.392-.653-.947-1.407-1.664-2.26-2.219-2.226-4.926-3.341-8.122-3.341-3.197 0-5.936 1.18-8.219 3.538-2.218 2.228-3.327 4.915-3.327 8.06 0 3.211 1.109 5.932 3.327 8.158l19.765 18.971 19.766-18.97c2.087-2.097 3.13-4.882 3.13-8.355 0-3.146-1.109-5.832-3.326-8.06z"/></defs><g><g transform="translate(-1082 -5934)"><use fill="#b27cf5" xlink:href="#ofzua"/></g></g></svg>