<svg xmlns="http://www.w3.org/2000/svg" xmlns:xlink="http://www.w3.org/1999/xlink" width="15" height="15" viewBox="0 0 15 15"><defs><path id="wnoia" d="M1405.955 6115.496c0 2.088-.728 3.862-2.183 5.323-1.457 1.461-3.224 2.192-5.304 2.192s-3.847-.73-5.303-2.192c-1.456-1.461-2.184-3.235-2.184-5.323 0-2.088.728-3.862 2.184-5.323 1.456-1.461 3.223-2.192 5.303-2.192s3.847.73 5.304 2.192c1.455 1.461 2.183 3.235 2.183 5.323zm-1.248 0c0-1.722-.61-3.196-1.832-4.423-1.223-1.226-2.69-1.84-4.407-1.84-1.716 0-3.185.614-4.406 1.84-1.222 1.227-1.833 2.7-1.833 4.423 0 1.722.61 3.197 1.833 4.423 1.221 1.226 2.69 1.84 4.406 1.84 1.716 0 3.184-.614 4.407-1.84 1.221-1.226 1.832-2.701 1.832-4.423zm-6.239-3.758c1.04 0 1.924.366 2.652 1.096.727.73 1.092 1.618 1.092 2.662 0 1.044-.365 1.931-1.092 2.661-.728.731-1.612 1.096-2.652 1.096s-1.924-.365-2.651-1.096c-.729-.73-1.092-1.617-1.092-2.66 0-1.045.363-1.932 1.092-2.663.727-.73 1.611-1.096 2.651-1.096z"/></defs><g><g transform="translate(-1391 -6108)"><use fill="#feb960" xlink:href="#wnoia"/></g></g></svg>