<svg xmlns="http://www.w3.org/2000/svg" xmlns:xlink="http://www.w3.org/1999/xlink" width="15" height="16" viewBox="0 0 15 16"><defs><path id="5wpia" d="M528.997 6114.766c0 2.084-.73 3.855-2.186 5.312-1.458 1.46-3.228 2.188-5.31 2.188-2.082 0-3.852-.728-5.309-2.188-1.458-1.457-2.186-3.228-2.186-5.312 0-2.083.728-3.853 2.186-5.312 1.457-1.459 3.227-2.187 5.31-2.187 2.081 0 3.85.728 5.309 2.187 1.457 1.459 2.186 3.229 2.186 5.312zm-1.25 0c0-1.719-.611-3.19-1.834-4.414-1.224-1.223-2.694-1.836-4.412-1.836-1.717 0-3.188.613-4.41 1.836-1.225 1.225-1.836 2.695-1.836 4.414 0 1.719.611 3.19 1.835 4.414 1.223 1.225 2.694 1.836 4.411 1.836 1.718 0 3.188-.611 4.412-1.836 1.223-1.224 1.834-2.695 1.834-4.414zm-6.246-3.75c1.041 0 1.926.365 2.655 1.094.728.73 1.093 1.615 1.093 2.657 0 1.04-.365 1.927-1.093 2.655-.729.73-1.614 1.094-2.655 1.094-1.04 0-1.926-.364-2.654-1.094-.73-.728-1.093-1.614-1.093-2.655 0-1.042.364-1.928 1.093-2.657.728-.73 1.613-1.093 2.654-1.093z"/></defs><g><g transform="translate(-514 -6107)"><use fill="#fc5f45" xlink:href="#5wpia"/></g></g></svg>